<mxfile host="Electron" agent="Mozilla/5.0 (Windows NT 10.0; Win64; x64) AppleWebKit/537.36 (KHTML, like Gecko) draw.io/24.7.17 Chrome/128.0.6613.36 Electron/32.0.1 Safari/537.36" version="24.7.17">
  <diagram id="BWM0edH3dckiVryvSr8I" name="Page-1">
    <mxGraphModel dx="1569" dy="1183" grid="1" gridSize="10" guides="1" tooltips="1" connect="1" arrows="1" fold="1" page="1" pageScale="1" pageWidth="850" pageHeight="1100" math="0" shadow="0">
      <root>
        <mxCell id="0" />
        <mxCell id="1" parent="0" />
        <mxCell id="IISHHmRaYESX8p8xrnQU-1" value="" style="rounded=1;whiteSpace=wrap;html=1;" vertex="1" parent="1">
          <mxGeometry y="30" width="850" height="170" as="geometry" />
        </mxCell>
        <mxCell id="IISHHmRaYESX8p8xrnQU-2" value="" style="rounded=1;whiteSpace=wrap;html=1;" vertex="1" parent="1">
          <mxGeometry x="158" y="236" width="520" height="80" as="geometry" />
        </mxCell>
        <mxCell id="IISHHmRaYESX8p8xrnQU-3" value="" style="rounded=1;whiteSpace=wrap;html=1;" vertex="1" parent="1">
          <mxGeometry x="119" y="350" width="600" height="490" as="geometry" />
        </mxCell>
        <mxCell id="IISHHmRaYESX8p8xrnQU-4" value="" style="rounded=1;whiteSpace=wrap;html=1;" vertex="1" parent="1">
          <mxGeometry x="120" y="880" width="600" height="80" as="geometry" />
        </mxCell>
        <mxCell id="IISHHmRaYESX8p8xrnQU-5" value="" style="rounded=0;whiteSpace=wrap;html=1;" vertex="1" parent="1">
          <mxGeometry y="1000" width="850" height="100" as="geometry" />
        </mxCell>
        <mxCell id="IISHHmRaYESX8p8xrnQU-6" value="&lt;font style=&quot;font-size: 80px;&quot;&gt;TrackIt&lt;/font&gt;" style="text;strokeColor=none;align=center;fillColor=none;html=1;verticalAlign=middle;whiteSpace=wrap;rounded=0;" vertex="1" parent="1">
          <mxGeometry x="255" y="80" width="340" height="60" as="geometry" />
        </mxCell>
        <mxCell id="IISHHmRaYESX8p8xrnQU-7" value="&lt;font style=&quot;font-size: 30px;&quot;&gt;[ + ] Add Category&lt;/font&gt;" style="text;strokeColor=none;align=left;fillColor=none;html=1;verticalAlign=middle;whiteSpace=wrap;rounded=0;fontSize=30;" vertex="1" parent="1">
          <mxGeometry x="168" y="245" width="500" height="60" as="geometry" />
        </mxCell>
        <mxCell id="IISHHmRaYESX8p8xrnQU-13" value="&lt;span style=&quot;font-size: 20px;&quot;&gt;[Home] [Categories]&amp;nbsp;&lt;/span&gt;&lt;span style=&quot;font-size: 20px;&quot;&gt;[Reports]&amp;nbsp;&lt;/span&gt;&lt;span style=&quot;font-size: 20px;&quot;&gt;[Settings]&lt;/span&gt;" style="text;strokeColor=none;align=center;fillColor=none;html=1;verticalAlign=middle;whiteSpace=wrap;rounded=0;fontSize=30;" vertex="1" parent="1">
          <mxGeometry x="172.5" y="885" width="495" height="70" as="geometry" />
        </mxCell>
        <mxCell id="IISHHmRaYESX8p8xrnQU-14" value="&lt;span style=&quot;font-size: 20px;&quot;&gt;Lorem Ipsum&lt;/span&gt;" style="text;strokeColor=none;align=center;fillColor=none;html=1;verticalAlign=middle;whiteSpace=wrap;rounded=0;fontSize=30;" vertex="1" parent="1">
          <mxGeometry x="172.5" y="1015" width="495" height="70" as="geometry" />
        </mxCell>
        <mxCell id="IISHHmRaYESX8p8xrnQU-17" value="" style="endArrow=none;html=1;rounded=0;entryX=0.5;entryY=0;entryDx=0;entryDy=0;exitX=0.5;exitY=1;exitDx=0;exitDy=0;" edge="1" parent="1" source="IISHHmRaYESX8p8xrnQU-3" target="IISHHmRaYESX8p8xrnQU-3">
          <mxGeometry width="50" height="50" relative="1" as="geometry">
            <mxPoint x="300" y="530" as="sourcePoint" />
            <mxPoint x="350" y="480" as="targetPoint" />
          </mxGeometry>
        </mxCell>
        <mxCell id="IISHHmRaYESX8p8xrnQU-18" value="&lt;span style=&quot;font-size: 20px;&quot;&gt;Category Name&lt;/span&gt;" style="text;strokeColor=none;align=center;fillColor=none;html=1;verticalAlign=middle;whiteSpace=wrap;rounded=0;fontSize=30;" vertex="1" parent="1">
          <mxGeometry x="139" y="350" width="280" height="70" as="geometry" />
        </mxCell>
        <mxCell id="IISHHmRaYESX8p8xrnQU-19" value="&lt;span style=&quot;font-size: 20px;&quot;&gt;Total Spent&lt;/span&gt;" style="text;strokeColor=none;align=center;fillColor=none;html=1;verticalAlign=middle;whiteSpace=wrap;rounded=0;fontSize=30;" vertex="1" parent="1">
          <mxGeometry x="419" y="350" width="280" height="70" as="geometry" />
        </mxCell>
        <mxCell id="IISHHmRaYESX8p8xrnQU-20" value="&lt;span style=&quot;font-size: 20px;&quot;&gt;Food&lt;br&gt;[ Edit ] [ Delete ]&lt;/span&gt;" style="text;strokeColor=none;align=left;fillColor=none;html=1;verticalAlign=middle;whiteSpace=wrap;rounded=0;fontSize=30;" vertex="1" parent="1">
          <mxGeometry x="139" y="438" width="280" height="70" as="geometry" />
        </mxCell>
        <mxCell id="IISHHmRaYESX8p8xrnQU-21" value="" style="endArrow=none;dashed=1;html=1;rounded=0;entryX=1.004;entryY=0.195;entryDx=0;entryDy=0;entryPerimeter=0;exitX=0.004;exitY=0.198;exitDx=0;exitDy=0;exitPerimeter=0;" edge="1" parent="1">
          <mxGeometry width="50" height="50" relative="1" as="geometry">
            <mxPoint x="121.40000000000009" y="426.02" as="sourcePoint" />
            <mxPoint x="721.4000000000001" y="424.54999999999995" as="targetPoint" />
          </mxGeometry>
        </mxCell>
        <mxCell id="IISHHmRaYESX8p8xrnQU-22" value="&lt;span style=&quot;font-size: 20px;&quot;&gt;Transportation&lt;br&gt;[ Edit ] [ Delete ]&lt;/span&gt;" style="text;strokeColor=none;align=left;fillColor=none;html=1;verticalAlign=middle;whiteSpace=wrap;rounded=0;fontSize=30;" vertex="1" parent="1">
          <mxGeometry x="139" y="519" width="280" height="70" as="geometry" />
        </mxCell>
        <mxCell id="IISHHmRaYESX8p8xrnQU-23" value="&lt;span style=&quot;font-size: 20px;&quot;&gt;Entertainment&lt;/span&gt;&lt;span style=&quot;color: rgba(0, 0, 0, 0); font-family: monospace; font-size: 0px; text-wrap: nowrap;&quot;&gt;%3CmxGraphModel%3E%3Croot%3E%3CmxCell%20id%3D%220%22%2F%3E%3CmxCell%20id%3D%221%22%20parent%3D%220%22%2F%3E%3CmxCell%20id%3D%222%22%20value%3D%22%26lt%3Bspan%20style%3D%26quot%3Bfont-size%3A%2020px%3B%26quot%3B%26gt%3BFood%26lt%3Bbr%26gt%3B%5B%20Edit%20%5D%20%5B%20Delete%20%5D%26lt%3B%2Fspan%26gt%3B%22%20style%3D%22text%3BstrokeColor%3Dnone%3Balign%3Dleft%3BfillColor%3Dnone%3Bhtml%3D1%3BverticalAlign%3Dmiddle%3BwhiteSpace%3Dwrap%3Brounded%3D0%3BfontSize%3D30%3B%22%20vertex%3D%221%22%20parent%3D%221%22%3E%3CmxGeometry%20x%3D%2246%22%20y%3D%22435%22%20width%3D%22280%22%20height%3D%2270%22%20as%3D%22geometry%22%2F%3E%3C%2FmxCell%3E%3C%2Froot%3E%3C%2FmxGraphModel%3E&lt;/span&gt;&lt;span style=&quot;font-size: 20px;&quot;&gt;&lt;br&gt;[ Edit ] [ Delete ]&lt;/span&gt;" style="text;strokeColor=none;align=left;fillColor=none;html=1;verticalAlign=middle;whiteSpace=wrap;rounded=0;fontSize=30;" vertex="1" parent="1">
          <mxGeometry x="139" y="599" width="280" height="70" as="geometry" />
        </mxCell>
        <mxCell id="IISHHmRaYESX8p8xrnQU-24" value="&lt;span style=&quot;font-size: 20px;&quot;&gt;Utilities&lt;br&gt;[ Edit ] [ Delete ]&lt;/span&gt;" style="text;strokeColor=none;align=left;fillColor=none;html=1;verticalAlign=middle;whiteSpace=wrap;rounded=0;fontSize=30;" vertex="1" parent="1">
          <mxGeometry x="139" y="680" width="280" height="70" as="geometry" />
        </mxCell>
        <mxCell id="IISHHmRaYESX8p8xrnQU-25" value="&lt;span style=&quot;font-size: 20px;&quot;&gt;Scrollable List ...&lt;/span&gt;" style="text;strokeColor=none;align=center;fillColor=none;html=1;verticalAlign=middle;whiteSpace=wrap;rounded=0;fontSize=30;" vertex="1" parent="1">
          <mxGeometry x="119" y="770" width="280" height="70" as="geometry" />
        </mxCell>
        <mxCell id="IISHHmRaYESX8p8xrnQU-26" value="&lt;span style=&quot;font-size: 20px;&quot;&gt;$150.00&lt;/span&gt;" style="text;strokeColor=none;align=center;fillColor=none;html=1;verticalAlign=middle;whiteSpace=wrap;rounded=0;fontSize=30;" vertex="1" parent="1">
          <mxGeometry x="419" y="438" width="280" height="70" as="geometry" />
        </mxCell>
        <mxCell id="IISHHmRaYESX8p8xrnQU-27" value="&lt;span style=&quot;font-size: 20px;&quot;&gt;$60.00&lt;/span&gt;" style="text;strokeColor=none;align=center;fillColor=none;html=1;verticalAlign=middle;whiteSpace=wrap;rounded=0;fontSize=30;" vertex="1" parent="1">
          <mxGeometry x="419" y="519" width="280" height="70" as="geometry" />
        </mxCell>
        <mxCell id="IISHHmRaYESX8p8xrnQU-28" value="&lt;span style=&quot;font-size: 20px;&quot;&gt;$100.00&lt;/span&gt;" style="text;strokeColor=none;align=center;fillColor=none;html=1;verticalAlign=middle;whiteSpace=wrap;rounded=0;fontSize=30;" vertex="1" parent="1">
          <mxGeometry x="419" y="599" width="280" height="70" as="geometry" />
        </mxCell>
        <mxCell id="IISHHmRaYESX8p8xrnQU-29" value="&lt;span style=&quot;font-size: 20px;&quot;&gt;$80.00&lt;/span&gt;" style="text;strokeColor=none;align=center;fillColor=none;html=1;verticalAlign=middle;whiteSpace=wrap;rounded=0;fontSize=30;" vertex="1" parent="1">
          <mxGeometry x="419" y="680" width="280" height="70" as="geometry" />
        </mxCell>
      </root>
    </mxGraphModel>
  </diagram>
</mxfile>
